# xmcd
#
# Track frame offsets: 
#        150
#        4904
#        29364
#        53946
#        74273
#        100432
#        123131
#        144674
#        156153
#        177142
#        206206
#        227211
#        249995
#        271818
#        298199
#        312305
#
# Disc length: 4310 seconds
#
# Revision: 0
# Processed by: cddbd v1.5.2PL0 Copyright (c) Steve Scherf et al.
# Submitted via: ExactAudioCopy v0.99pb4
#
DISCID=eb10d410
DTITLE=Uptown Funk Empire - The Empire Strikes Back
DYEAR=2009
DGENRE=Funk
TTITLE0=The Empire Stikes Back Intro
TTITLE1=Boogie
TTITLE2=N.O.W. (Featuring Juan Rozoff)
TTITLE3=We Stand At The Back Of The Bus (Featuring Janice and Ange)
TTITLE4=You've Got To Have Freedom (Featuring Janice and Ange)
TTITLE5=Keep On Givin'It Up
TTITLE6=No One Gonna Stop Us Now (Featuring Noel MC Koy)
TTITLE7=Take You Out (Interlude)
TTITLE8=I'm A Manchild
TTITLE9=I Guess That You Don't Mind (Featuring JRM)
TTITLE10=Celestial Blues (Featuring Ange)
TTITLE11=Please Mr Postman
TTITLE12=Walking Like The Ginger
TTITLE13=Good Time (Bye Bye Mr Dynamite)
TTITLE14=I Used To Spend My Time
TTITLE15=The Empire Strikes Back Outro
EXTD=
EXTT0=
EXTT1=
EXTT2=
EXTT3=
EXTT4=
EXTT5=
EXTT6=
EXTT7=
EXTT8=
EXTT9=
EXTT10=
EXTT11=
EXTT12=
EXTT13=
EXTT14=
EXTT15=
PLAYORDER=
